<?xml version="1.0" encoding="utf-8"?>
<!-- Generator: Adobe Illustrator 24.0.1, SVG Export Plug-In . SVG Version: 6.00 Build 0)  -->
<svg version="1.1" id="Layer_1" xmlns="http://www.w3.org/2000/svg" xmlns:xlink="http://www.w3.org/1999/xlink" x="0px" y="0px"
	 viewBox="0 0 84.21 40.25" style="enable-background:new 0 0 84.21 40.25;" xml:space="preserve">
<style type="text/css">
	.st0{fill:#55C2FF;}
</style>
<path d="M25.32,7.61c0.25,0.25,0.38,0.56,0.38,0.92s-0.13,0.67-0.38,0.93c-0.25,0.26-0.55,0.39-0.92,0.39h-1.73
	c-0.65,0.06-1.21,0.32-1.68,0.78c-0.47,0.47-0.7,1.02-0.7,1.68v4.12c0,0.35-0.13,0.64-0.38,0.87c-0.26,0.24-0.57,0.35-0.93,0.35
	c-0.35,0-0.65-0.12-0.91-0.35c-0.26-0.24-0.39-0.53-0.39-0.87V8.53c0-0.36,0.13-0.67,0.39-0.92c0.26-0.25,0.56-0.38,0.91-0.38h5.41
	C24.76,7.24,25.07,7.36,25.32,7.61z"/>
<path d="M46.64,16.11c-1.01,1.01-2.24,1.52-3.69,1.52c-0.93,0-1.8-0.24-2.6-0.71v4.5c0,0.36-0.13,0.67-0.38,0.93
	s-0.57,0.39-0.93,0.39c-0.35,0-0.65-0.13-0.91-0.39s-0.39-0.57-0.39-0.93V8.53c0-0.36,0.13-0.67,0.39-0.93
	c0.26-0.26,0.56-0.38,0.91-0.38h3.91c1.44,0,2.67,0.51,3.69,1.53c1.01,1.02,1.52,2.25,1.52,3.67
	C48.16,13.86,47.65,15.09,46.64,16.11z M44.79,10.58c-0.51-0.51-1.12-0.76-1.84-0.76s-1.34,0.25-1.84,0.76s-0.76,1.13-0.76,1.85
	s0.25,1.34,0.76,1.85s1.12,0.76,1.84,0.76s1.34-0.25,1.84-0.76s0.76-1.13,0.76-1.85S45.3,11.09,44.79,10.58z"/>
<path d="M58.61,8.76c1.01-1.01,2.24-1.52,3.68-1.52s2.67,0.51,3.69,1.52c1.01,1.01,1.52,2.24,1.52,3.69v3.91
	c0,0.35-0.13,0.65-0.38,0.91c-0.26,0.26-0.56,0.39-0.91,0.39h-3.93c-1.43-0.01-2.65-0.53-3.66-1.54c-1.01-1.01-1.52-2.23-1.52-3.66
	C57.09,11,57.59,9.77,58.61,8.76z M64.14,10.58c-0.51-0.51-1.12-0.76-1.84-0.76s-1.34,0.25-1.84,0.76s-0.76,1.13-0.76,1.85
	s0.25,1.34,0.76,1.85s1.12,0.76,1.84,0.76s1.34-0.25,1.84-0.76c0.51-0.51,0.76-1.13,0.76-1.85S64.64,11.09,64.14,10.58z"/>
<path d="M77.95,16.11c-1.01,1.01-2.24,1.52-3.69,1.52c-0.93,0-1.8-0.24-2.6-0.71v4.5c0,0.36-0.13,0.67-0.38,0.93
	s-0.57,0.39-0.93,0.39c-0.35,0-0.65-0.13-0.91-0.39s-0.39-0.57-0.39-0.93V8.53c0-0.36,0.13-0.67,0.39-0.93
	C69.7,7.34,70,7.22,70.35,7.22h3.91c1.44,0,2.67,0.51,3.69,1.53c1.01,1.02,1.52,2.25,1.52,3.67C79.47,13.86,78.96,15.09,77.95,16.11
	z M76.11,10.58c-0.51-0.51-1.12-0.76-1.84-0.76s-1.34,0.25-1.84,0.76s-0.76,1.13-0.76,1.85s0.25,1.34,0.76,1.85s1.12,0.76,1.84,0.76
	s1.34-0.25,1.84-0.76s0.76-1.13,0.76-1.85S76.61,11.09,76.11,10.58z"/>
<path d="M6.13,17.58c-0.39,0-0.71-0.13-0.98-0.4s-0.4-0.6-0.4-0.98V5.86c0-0.38,0.13-0.7,0.4-0.97c0.27-0.27,0.6-0.41,0.98-0.41
	h3.44c1.81,0,3.35,0.64,4.63,1.93c1.28,1.28,1.93,2.82,1.93,4.63c0,1.8-0.64,3.35-1.93,4.63c-1.28,1.28-2.82,1.92-4.63,1.92H6.13z
	 M7.5,14.82h2.07c1.05,0,1.95-0.37,2.69-1.11c0.74-0.74,1.11-1.63,1.11-2.68S13,9.09,12.26,8.35c-0.74-0.75-1.64-1.12-2.69-1.12H7.5
	V14.82z"/>
<path d="M48.37,7.23c-0.39,0-0.71-0.13-0.98-0.4s-0.4-0.59-0.4-0.97c0-0.38,0.13-0.7,0.4-0.97c0.27-0.27,0.6-0.41,0.98-0.41h8.62
	c0.38,0,0.71,0.14,0.98,0.41c0.27,0.27,0.4,0.59,0.4,0.97c0,0.38-0.13,0.7-0.4,0.97c-0.27,0.27-0.6,0.4-0.98,0.4h-2.93v8.97
	c0,0.39-0.13,0.71-0.4,0.98c-0.27,0.27-0.59,0.4-0.97,0.4c-0.38,0-0.71-0.13-0.98-0.4c-0.27-0.27-0.4-0.6-0.4-0.98V7.23H48.37z"/>
<g>
	<g>
		<path class="st0" d="M32.33,7.9c-0.38-0.12-0.79-0.18-1.2-0.18c-0.59,0-1.15,0.13-1.66,0.35c-0.01,0.01-0.01,0.01-0.01,0.01
			c-1.41,0.64-2.39,2.05-2.39,3.7c0,1.39,0.7,2.61,1.75,3.34c0.01,0.01,0.03,0.02,0.04,0.03c0.65,0.44,1.44,0.7,2.27,0.7
			c0.4,0,0.8-0.06,1.16-0.17c0.01-0.01,0.02-0.01,0.03-0.01c1.66-0.51,2.86-2.06,2.86-3.88C35.18,9.95,33.98,8.41,32.33,7.9z
			 M29.53,9.25c0.1-0.26,0.34-0.45,0.64-0.45c0.2,0,0.38,0.09,0.5,0.23v0.01c0.11,0.12,0.18,0.28,0.18,0.45
			c0,0.38-0.3,0.69-0.68,0.69s-0.69-0.31-0.69-0.69C29.49,9.4,29.5,9.32,29.53,9.25z M28.98,14.2c-1.09-0.94-1.39-2.44-0.71-3.87
			c-0.13,1.22-0.08,2.4,0.95,3.27c0.97,0.82,2.07,1.09,3.33,0.78C31.39,15.19,30.03,15.1,28.98,14.2z"/>
		<circle class="st0" cx="31.1" cy="18.23" r="1.31"/>
		<path class="st0" d="M34,25.95c-0.75-0.09-1.35-0.66-1.47-1.41c-0.26-1.6,0.25-3.35-1.13-3.83c-1.11-0.2-1.47,0.75-1.54,1.25
			c-0.24,7.2-2.85,2.52-12.76,5.97c-8.2,3.7,10.88,5.25,14.28,5.05C47.54,32.51,55.73,28.33,34,25.95z M37.85,29.58
			c-4.49,0.74-8.99,0.74-13.49,0H37.85z M30.37,22.02c-0.76,5.03,3.78,7.07-5.09,6.46C30.98,27.86,29.66,26,30.37,22.02z
			 M26.84,31.9c-10.18-0.76-10.3-4.36,0.55-4.39c-0.58,0.09-1.83,0.24-2.38,0.43c-11.22,3.38,13.22,3.96,15.37,1.74
			c-1.52-1.76-3.61-1.81-5.55-2.38C53.3,29.32,35.57,33.11,26.84,31.9z"/>
		<path class="st0" d="M50.52,31.57c-0.3,0.82-1.04,1.22-1.8,1.52c-3.09,1.22-6.28,2.15-9.61,2.34c-3.45,0.2-6.92,0.43-10.38,0.33
			c-3.27-0.09-6.55-0.46-9.79-0.98c-1.9-0.31-3.74-1.09-5.56-1.77c-0.67-0.25-1.2-0.84-1.73-1.34
			C24.64,35.05,37.54,35.05,50.52,31.57z"/>
	</g>
</g>
</svg>
